<?xml version="1.0" encoding="UTF-8" standalone="no"?>
<!DOCTYPE svg PUBLIC "-//W3C//DTD SVG 1.1//EN"
 "http://www.w3.org/Graphics/SVG/1.1/DTD/svg11.dtd">
<!-- Generated by graphviz version 2.28.0 (20110509.1545)
 -->
<!-- Title: _anonymous_0 Pages: 1 -->
<svg width="466pt" height="1492pt"
 viewBox="0.00 0.00 466.00 1492.00" xmlns="http://www.w3.org/2000/svg" xmlns:xlink="http://www.w3.org/1999/xlink">
<g id="graph1" class="graph" transform="scale(1 1) rotate(0) translate(4 1488)">
<title>_anonymous_0</title>
<polygon fill="white" stroke="white" points="-4,5 -4,-1488 463,-1488 463,5 -4,5"/>
<g id="graph2" class="cluster"><title>cluster_intro</title>
<polygon fill="none" stroke="black" points="164,-1400 164,-1476 428,-1476 428,-1400 164,-1400"/>
<text text-anchor="middle" x="296" y="-1458" font-family="Times,serif" font-size="14.00">Course Introduction</text>
</g>
<g id="graph3" class="cluster"><title>cluster_development</title>
<polygon fill="none" stroke="black" points="8,-1198 8,-1364 270,-1364 270,-1198 8,-1198"/>
<text text-anchor="middle" x="139" y="-1346" font-family="Times,serif" font-size="14.00">Software Development</text>
</g>
<g id="graph4" class="cluster"><title>cluster_ooa</title>
<polygon fill="none" stroke="black" points="142,-938 142,-1162 450,-1162 450,-938 142,-938"/>
<text text-anchor="middle" x="296" y="-1144" font-family="Times,serif" font-size="14.00">Object Oriented Analysis</text>
</g>
<g id="graph5" class="cluster"><title>cluster_qa</title>
<polygon fill="none" stroke="black" points="170,-826 170,-902 289,-902 289,-826 170,-826"/>
<text text-anchor="middle" x="229.5" y="-884" font-family="Times,serif" font-size="14.00">Quality Assurance</text>
</g>
<g id="graph6" class="cluster"><title>cluster_ood</title>
<polygon fill="none" stroke="black" points="153,-566 153,-790 391,-790 391,-566 153,-566"/>
<text text-anchor="middle" x="272" y="-772" font-family="Times,serif" font-size="14.00">Object Oriented Design</text>
</g>
<g id="graph7" class="cluster"><title>cluster_sa</title>
<polygon fill="none" stroke="black" points="36,-380 36,-530 372,-530 372,-380 36,-380"/>
<text text-anchor="middle" x="204" y="-512" font-family="Times,serif" font-size="14.00">Software Architecture</text>
</g>
<g id="graph8" class="cluster"><title>cluster_impl</title>
<polygon fill="none" stroke="black" points="118,-194 118,-344 378,-344 378,-194 118,-194"/>
<text text-anchor="middle" x="248" y="-326" font-family="Times,serif" font-size="14.00">From Design to Code</text>
</g>
<g id="graph9" class="cluster"><title>cluster_wrapup</title>
<polygon fill="none" stroke="black" points="165,-8 165,-158 405,-158 405,-8 165,-8"/>
<text text-anchor="middle" x="285" y="-140" font-family="Times,serif" font-size="14.00">Course Wrap&#45;up</text>
</g>
<!-- s0 -->
<g id="node1" class="node"><title>s0</title>
<ellipse fill="#a1d99b" stroke="black" cx="296" cy="-1426" rx="124.244" ry="18"/>
<text text-anchor="middle" x="296" y="-1420.4" font-family="Times,serif" font-size="14.00">Sprint 0: Course Introduction</text>
</g>
<!-- devmet -->
<g id="node2" class="node"><title>devmet</title>
<ellipse fill="#a1d99b" stroke="black" cx="139" cy="-1314" rx="123.118" ry="18"/>
<text text-anchor="middle" x="139" y="-1308.4" font-family="Times,serif" font-size="14.00">Development Methodologies</text>
</g>
<!-- s0&#45;&gt;devmet -->
<g id="edge25" class="edge"><title>s0&#45;&gt;devmet</title>
<path fill="none" stroke="green" d="M266.678,-1408.37C257.19,-1402.76 246.714,-1396.31 237.389,-1390 213.106,-1373.57 186.746,-1353.34 167.428,-1338.03"/>
<polygon fill="green" stroke="green" points="169.608,-1335.29 159.606,-1331.8 165.245,-1340.77 169.608,-1335.29"/>
<text text-anchor="middle" x="260.306" y="-1375.4" font-family="Times,serif" font-size="14.00" fill="green">PA1415</text>
</g>
<!-- ucd -->
<g id="node4" class="node"><title>ucd</title>
<ellipse fill="#a1d99b" stroke="black" cx="296" cy="-1112" rx="145.398" ry="18"/>
<text text-anchor="middle" x="296" y="-1106.4" font-family="Times,serif" font-size="14.00">Use Cases and Use Case Diagrams</text>
</g>
<!-- s0&#45;&gt;ucd -->
<g id="edge40" class="edge"><title>s0&#45;&gt;ucd</title>
<path fill="none" stroke="blue" d="M296,-1407.78C296,-1356.32 296,-1203.37 296,-1140.48"/>
<polygon fill="blue" stroke="blue" points="299.5,-1140.17 296,-1130.17 292.5,-1140.17 299.5,-1140.17"/>
<text text-anchor="middle" x="318.306" y="-1263.4" font-family="Times,serif" font-size="14.00" fill="blue">PA1435</text>
</g>
<!-- s0&#45;&gt;ucd -->
<g id="edge52" class="edge"><title>s0&#45;&gt;ucd</title>
<path fill="none" stroke="blueviolet" d="M305.8,-1407.96C321.678,-1378.35 350.445,-1315.27 342,-1260 335.388,-1216.73 318.423,-1168.69 307.049,-1139.67"/>
<polygon fill="blueviolet" stroke="blueviolet" points="310.242,-1138.23 303.285,-1130.24 303.741,-1140.83 310.242,-1138.23"/>
<text text-anchor="middle" x="366.306" y="-1263.4" font-family="Times,serif" font-size="14.00" fill="blueviolet">PA1443</text>
</g>
<!-- re -->
<g id="node3" class="node"><title>re</title>
<ellipse fill="#a1d99b" stroke="black" cx="144" cy="-1224" rx="113.925" ry="18"/>
<text text-anchor="middle" x="144" y="-1218.4" font-family="Times,serif" font-size="14.00">Requirements Engineering</text>
</g>
<!-- devmet&#45;&gt;re -->
<g id="edge4" class="edge"><title>devmet&#45;&gt;re</title>
<path fill="none" stroke="black" d="M139.988,-1295.61C140.691,-1283.24 141.65,-1266.37 142.453,-1252.22"/>
<polygon fill="black" stroke="black" points="145.958,-1252.23 143.031,-1242.05 138.97,-1251.84 145.958,-1252.23"/>
</g>
<!-- re&#45;&gt;ucd -->
<g id="edge27" class="edge"><title>re&#45;&gt;ucd</title>
<path fill="none" stroke="green" d="M167.086,-1206.29C193.088,-1187.48 235.496,-1156.79 264.521,-1135.78"/>
<polygon fill="green" stroke="green" points="266.648,-1138.56 272.697,-1129.86 262.544,-1132.89 266.648,-1138.56"/>
<text text-anchor="middle" x="238.306" y="-1173.4" font-family="Times,serif" font-size="14.00" fill="green">PA1415</text>
</g>
<!-- ce -->
<g id="node5" class="node"><title>ce</title>
<ellipse fill="#a1d99b" stroke="black" cx="296" cy="-1038" rx="92.047" ry="18"/>
<text text-anchor="middle" x="296" y="-1032.4" font-family="Times,serif" font-size="14.00">Concepts and Events</text>
</g>
<!-- ucd&#45;&gt;ce -->
<g id="edge7" class="edge"><title>ucd&#45;&gt;ce</title>
<path fill="none" stroke="black" d="M296,-1093.94C296,-1085.81 296,-1075.88 296,-1066.7"/>
<polygon fill="black" stroke="black" points="299.5,-1066.44 296,-1056.44 292.5,-1066.44 299.5,-1066.44"/>
</g>
<!-- sd -->
<g id="node7" class="node"><title>sd</title>
<ellipse fill="#a1d99b" stroke="black" cx="237" cy="-964" rx="66.3175" ry="18"/>
<text text-anchor="middle" x="237" y="-958.4" font-family="Times,serif" font-size="14.00">State Diagram</text>
</g>
<!-- ce&#45;&gt;sd -->
<g id="edge8" class="edge"><title>ce&#45;&gt;sd</title>
<path fill="none" stroke="black" d="M282.018,-1019.94C274.67,-1010.97 265.527,-999.812 257.404,-989.899"/>
<polygon fill="black" stroke="black" points="259.927,-987.457 250.882,-981.941 254.513,-991.894 259.927,-987.457"/>
</g>
<!-- goodint -->
<g id="node8" class="node"><title>goodint</title>
<ellipse fill="#a1d99b" stroke="black" cx="272" cy="-740" rx="80.2394" ry="18"/>
<text text-anchor="middle" x="272" y="-734.4" font-family="Times,serif" font-size="14.00">Good Interactions</text>
</g>
<!-- ce&#45;&gt;goodint -->
<g id="edge54" class="edge"><title>ce&#45;&gt;goodint</title>
<path fill="none" stroke="blueviolet" d="M302.322,-1019.94C305.952,-1009.21 310.148,-994.995 312,-982 318.46,-936.666 315.271,-832.751 305,-798 301.758,-787.031 296.011,-775.931 290.212,-766.478"/>
<polygon fill="blueviolet" stroke="blueviolet" points="293.084,-764.474 284.716,-757.976 287.206,-768.274 293.084,-764.474"/>
<text text-anchor="middle" x="338.306" y="-913.4" font-family="Times,serif" font-size="14.00" fill="blueviolet">PA1443</text>
</g>
<!-- tst -->
<g id="node6" class="node"><title>tst</title>
<ellipse fill="#a1d99b" stroke="black" cx="229" cy="-852" rx="38.994" ry="18"/>
<text text-anchor="middle" x="229" y="-846.4" font-family="Times,serif" font-size="14.00">Testing</text>
</g>
<!-- tst&#45;&gt;goodint -->
<g id="edge31" class="edge"><title>tst&#45;&gt;goodint</title>
<path fill="none" stroke="green" d="M214.523,-835.184C206.681,-824.624 199.659,-810.444 205.389,-798 211.854,-783.959 223.673,-772.087 235.581,-762.874"/>
<polygon fill="green" stroke="green" points="237.738,-765.633 243.775,-756.926 233.626,-759.968 237.738,-765.633"/>
<text text-anchor="middle" x="228.306" y="-801.4" font-family="Times,serif" font-size="14.00" fill="green">PA1415</text>
</g>
<!-- tst&#45;&gt;goodint -->
<g id="edge43" class="edge"><title>tst&#45;&gt;goodint</title>
<path fill="none" stroke="blue" d="M240.157,-834.376C243.635,-828.711 247.27,-822.231 250,-816 256.747,-800.597 262.117,-782.532 265.862,-767.992"/>
<polygon fill="blue" stroke="blue" points="269.302,-768.663 268.299,-758.115 262.506,-766.986 269.302,-768.663"/>
<text text-anchor="middle" x="279.306" y="-801.4" font-family="Times,serif" font-size="14.00" fill="blue">PA1435</text>
</g>
<!-- sd&#45;&gt;tst -->
<g id="edge29" class="edge"><title>sd&#45;&gt;tst</title>
<path fill="none" stroke="green" d="M204.106,-948.197C196.244,-942.995 188.845,-936.316 184.389,-928 174.701,-909.919 187.74,-889.984 202.176,-875.214"/>
<polygon fill="green" stroke="green" points="204.92,-877.433 209.739,-867.998 200.088,-872.369 204.92,-877.433"/>
<text text-anchor="middle" x="207.306" y="-913.4" font-family="Times,serif" font-size="14.00" fill="green">PA1415</text>
</g>
<!-- sd&#45;&gt;tst -->
<g id="edge42" class="edge"><title>sd&#45;&gt;tst</title>
<path fill="none" stroke="blue" d="M235.75,-945.812C234.47,-928.215 232.462,-900.607 230.969,-880.071"/>
<polygon fill="blue" stroke="blue" points="234.457,-879.787 230.241,-870.067 227.476,-880.294 234.457,-879.787"/>
<text text-anchor="middle" x="257.306" y="-913.4" font-family="Times,serif" font-size="14.00" fill="blue">PA1435</text>
</g>
<!-- interact -->
<g id="node9" class="node"><title>interact</title>
<ellipse fill="#a1d99b" stroke="black" cx="272" cy="-666" rx="110.184" ry="18"/>
<text text-anchor="middle" x="272" y="-660.4" font-family="Times,serif" font-size="14.00">Interactions and Structure</text>
</g>
<!-- goodint&#45;&gt;interact -->
<g id="edge12" class="edge"><title>goodint&#45;&gt;interact</title>
<path fill="none" stroke="black" d="M272,-721.937C272,-713.807 272,-703.876 272,-694.705"/>
<polygon fill="black" stroke="black" points="275.5,-694.441 272,-684.441 268.5,-694.441 275.5,-694.441"/>
</g>
<!-- dp -->
<g id="node10" class="node"><title>dp</title>
<ellipse fill="#a1d99b" stroke="black" cx="272" cy="-592" rx="71.3814" ry="18"/>
<text text-anchor="middle" x="272" y="-586.4" font-family="Times,serif" font-size="14.00">Design Patterns</text>
</g>
<!-- interact&#45;&gt;dp -->
<g id="edge13" class="edge"><title>interact&#45;&gt;dp</title>
<path fill="none" stroke="black" d="M272,-647.937C272,-639.807 272,-629.876 272,-620.705"/>
<polygon fill="black" stroke="black" points="275.5,-620.441 272,-610.441 268.5,-620.441 275.5,-620.441"/>
</g>
<!-- sa -->
<g id="node12" class="node"><title>sa</title>
<ellipse fill="#a1d99b" stroke="black" cx="204" cy="-480" rx="159.313" ry="18"/>
<text text-anchor="middle" x="204" y="-474.4" font-family="Times,serif" font-size="14.00">Introduction to Software Architectures</text>
</g>
<!-- dp&#45;&gt;sa -->
<g id="edge33" class="edge"><title>dp&#45;&gt;sa</title>
<path fill="none" stroke="green" d="M229.654,-577.295C220.085,-572.151 211.082,-565.228 205.389,-556 196.75,-541.997 196.3,-523.55 198.06,-508.454"/>
<polygon fill="green" stroke="green" points="201.581,-508.583 199.646,-498.167 194.663,-507.516 201.581,-508.583"/>
<text text-anchor="middle" x="228.306" y="-541.4" font-family="Times,serif" font-size="14.00" fill="green">PA1415</text>
</g>
<!-- dp&#45;&gt;sa -->
<g id="edge45" class="edge"><title>dp&#45;&gt;sa</title>
<path fill="none" stroke="blue" d="M266.244,-573.699C262.358,-563.043 256.719,-549.305 250,-538 243.3,-526.727 234.534,-515.287 226.453,-505.643"/>
<polygon fill="blue" stroke="blue" points="229.06,-503.308 219.886,-498.008 223.753,-507.872 229.06,-503.308"/>
<text text-anchor="middle" x="281.306" y="-541.4" font-family="Times,serif" font-size="14.00" fill="blue">PA1435</text>
</g>
<!-- impl -->
<g id="node14" class="node"><title>impl</title>
<ellipse fill="#a1d99b" stroke="black" cx="285" cy="-220" rx="72.27" ry="18"/>
<text text-anchor="middle" x="285" y="-214.4" font-family="Times,serif" font-size="14.00">Implementation</text>
</g>
<!-- dp&#45;&gt;impl -->
<g id="edge56" class="edge"><title>dp&#45;&gt;impl</title>
<path fill="none" stroke="blueviolet" d="M310.146,-576.582C347.231,-559.791 398,-528.187 398,-481 398,-481 398,-481 398,-293 398,-264.7 372.481,-247.038 345.697,-236.293"/>
<polygon fill="blueviolet" stroke="blueviolet" points="346.803,-232.971 336.21,-232.775 344.369,-239.534 346.803,-232.971"/>
<text text-anchor="middle" x="420.306" y="-400.4" font-family="Times,serif" font-size="14.00" fill="blueviolet">PA1443</text>
</g>
<!-- ui -->
<g id="node11" class="node"><title>ui</title>
<ellipse fill="#a1d99b" stroke="black" cx="248" cy="-294" rx="121.97" ry="18"/>
<text text-anchor="middle" x="248" y="-288.4" font-family="Times,serif" font-size="14.00">Designing the User Interface</text>
</g>
<!-- ui&#45;&gt;impl -->
<g id="edge19" class="edge"><title>ui&#45;&gt;impl</title>
<path fill="none" stroke="black" d="M256.768,-275.937C261.192,-267.329 266.653,-256.702 271.59,-247.095"/>
<polygon fill="black" stroke="black" points="274.837,-248.435 276.294,-237.941 268.611,-245.235 274.837,-248.435"/>
</g>
<!-- sap -->
<g id="node13" class="node"><title>sap</title>
<ellipse fill="#a1d99b" stroke="black" cx="204" cy="-406" rx="129.348" ry="18"/>
<text text-anchor="middle" x="204" y="-400.4" font-family="Times,serif" font-size="14.00">Software Architecture Patterns</text>
</g>
<!-- sa&#45;&gt;sap -->
<g id="edge16" class="edge"><title>sa&#45;&gt;sap</title>
<path fill="none" stroke="black" d="M204,-461.937C204,-453.807 204,-443.876 204,-434.705"/>
<polygon fill="black" stroke="black" points="207.5,-434.441 204,-424.441 200.5,-434.441 207.5,-434.441"/>
</g>
<!-- sap&#45;&gt;ui -->
<g id="edge35" class="edge"><title>sap&#45;&gt;ui</title>
<path fill="none" stroke="green" d="M195.693,-387.832C191.737,-377.226 188.771,-363.494 193.389,-352 198.468,-339.357 207.839,-327.937 217.402,-318.697"/>
<polygon fill="green" stroke="green" points="219.98,-321.084 225.034,-311.772 215.276,-315.899 219.98,-321.084"/>
<text text-anchor="middle" x="216.306" y="-355.4" font-family="Times,serif" font-size="14.00" fill="green">PA1415</text>
</g>
<!-- sap&#45;&gt;ui -->
<g id="edge47" class="edge"><title>sap&#45;&gt;ui</title>
<path fill="none" stroke="blue" d="M224.86,-387.867C229.939,-382.655 234.82,-376.555 238,-370 245.152,-355.259 247.709,-337.079 248.45,-322.31"/>
<polygon fill="blue" stroke="blue" points="251.95,-322.343 248.709,-312.257 244.953,-322.163 251.95,-322.343"/>
<text text-anchor="middle" x="267.306" y="-355.4" font-family="Times,serif" font-size="14.00" fill="blue">PA1435</text>
</g>
<!-- exam -->
<g id="node15" class="node"><title>exam</title>
<ellipse fill="#a1d99b" stroke="black" cx="285" cy="-108" rx="87.2903" ry="18"/>
<text text-anchor="middle" x="285" y="-102.4" font-family="Times,serif" font-size="14.00">Preparing for Exam</text>
</g>
<!-- impl&#45;&gt;exam -->
<g id="edge37" class="edge"><title>impl&#45;&gt;exam</title>
<path fill="none" stroke="green" d="M242.537,-205.366C232.969,-200.222 223.996,-193.28 218.389,-184 206.357,-164.087 225.023,-144.533 245.624,-130.386"/>
<polygon fill="green" stroke="green" points="247.676,-133.227 254.174,-124.859 243.876,-127.348 247.676,-133.227"/>
<text text-anchor="middle" x="241.306" y="-169.4" font-family="Times,serif" font-size="14.00" fill="green">PA1415</text>
</g>
<!-- impl&#45;&gt;exam -->
<g id="edge49" class="edge"><title>impl&#45;&gt;exam</title>
<path fill="none" stroke="blue" d="M285,-201.812C285,-184.215 285,-156.607 285,-136.071"/>
<polygon fill="blue" stroke="blue" points="288.5,-136.067 285,-126.067 281.5,-136.067 288.5,-136.067"/>
<text text-anchor="middle" x="307.306" y="-169.4" font-family="Times,serif" font-size="14.00" fill="blue">PA1435</text>
</g>
<!-- impl&#45;&gt;exam -->
<g id="edge58" class="edge"><title>impl&#45;&gt;exam</title>
<path fill="none" stroke="blueviolet" d="M313.844,-203.425C320.718,-198.219 327.167,-191.732 331,-184 334.553,-176.832 333.664,-173.543 331,-166 326.808,-154.129 318.978,-142.916 310.952,-133.626"/>
<polygon fill="blueviolet" stroke="blueviolet" points="313.278,-130.984 303.935,-125.989 308.124,-135.721 313.278,-130.984"/>
<text text-anchor="middle" x="356.306" y="-169.4" font-family="Times,serif" font-size="14.00" fill="blueviolet">PA1443</text>
</g>
<!-- s99 -->
<g id="node16" class="node"><title>s99</title>
<ellipse fill="#a1d99b" stroke="black" cx="285" cy="-34" rx="112.206" ry="18"/>
<text text-anchor="middle" x="285" y="-28.4" font-family="Times,serif" font-size="14.00">Sprint 99: Course Wrapup</text>
</g>
<!-- exam&#45;&gt;s99 -->
<g id="edge22" class="edge"><title>exam&#45;&gt;s99</title>
<path fill="none" stroke="black" d="M285,-89.937C285,-81.8072 285,-71.8761 285,-62.7047"/>
<polygon fill="black" stroke="black" points="288.5,-62.4406 285,-52.4407 281.5,-62.4407 288.5,-62.4406"/>
</g>
</g>
</svg>
